<?xml version="1.0" standalone="no"?><!DOCTYPE svg PUBLIC "-//W3C//DTD SVG 1.1//EN" "http://www.w3.org/Graphics/SVG/1.1/DTD/svg11.dtd"><svg t="1647854320371" class="icon" viewBox="0 0 1879 1024" version="1.1" xmlns="http://www.w3.org/2000/svg" p-id="15574" xmlns:xlink="http://www.w3.org/1999/xlink" width="366.9921875" height="200"><defs><style type="text/css">@font-face { font-family: feedback-iconfont; src: url("//at.alicdn.com/t/font_1031158_u69w8yhxdu.woff2?t=1630033759944") format("woff2"), url("//at.alicdn.com/t/font_1031158_u69w8yhxdu.woff?t=1630033759944") format("woff"), url("//at.alicdn.com/t/font_1031158_u69w8yhxdu.ttf?t=1630033759944") format("truetype"); }
</style></defs><path d="M849.387283 983.602312C599.898266 983.602312 397.613873 772.439306 397.613873 512S599.898266 40.545665 849.387283 40.545665h180.531792c249.489017 0 451.625434 211.163006 451.625434 471.602312 0 7.990751-0.739884 15.685549-1.183815 23.528324h1.035838v447.926011H1033.766474v-0.147977c-1.331792 0-2.515607 0.147977-3.847399 0.147977H849.387283z m-4.291329-872.471676c-208.351445 0-377.34104 179.495954-377.341041 400.869364s168.989595 400.869364 377.341041 400.869364h566.307514v-377.34104h-1.479769c0.443931-7.842775 1.035838-15.685549 1.035839-23.528324 0-221.37341-168.989595-400.869364-377.341041-400.869364H845.095954z m-68.513295 448.073988c-27.079769 0-48.980347-21.160694-48.980347-47.204624 0-26.043931 21.900578-47.204624 48.980347-47.204624s48.980347 21.160694 48.980347 47.204624c0 26.043931-22.048555 47.204624-48.980347 47.204624z m163.218497 0c-27.079769 0-48.980347-21.160694-48.980347-47.204624 0-26.043931 21.900578-47.204624 48.980347-47.204624s48.980347 21.160694 48.980347 47.204624c0 26.043931-21.900578 47.204624-48.980347 47.204624z m163.366474 0c-27.079769 0-48.980347-21.160694-48.980347-47.204624 0-26.043931 21.900578-47.204624 48.980347-47.204624s48.980347 21.160694 48.980347 47.204624c0 26.043931-22.048555 47.204624-48.980347 47.204624z" fill="#212121" p-id="15575"></path></svg>