<?xml version="1.0" standalone="no"?><!DOCTYPE svg PUBLIC "-//W3C//DTD SVG 1.1//EN" "http://www.w3.org/Graphics/SVG/1.1/DTD/svg11.dtd"><svg t="1647854127368" class="icon" viewBox="0 0 1024 1024" version="1.1" xmlns="http://www.w3.org/2000/svg" p-id="6377" xmlns:xlink="http://www.w3.org/1999/xlink" width="200" height="200"><defs><style type="text/css">@font-face { font-family: feedback-iconfont; src: url("//at.alicdn.com/t/font_1031158_u69w8yhxdu.woff2?t=1630033759944") format("woff2"), url("//at.alicdn.com/t/font_1031158_u69w8yhxdu.woff?t=1630033759944") format("woff"), url("//at.alicdn.com/t/font_1031158_u69w8yhxdu.ttf?t=1630033759944") format("truetype"); }
</style></defs><path d="M701.31 314.31A267.65 267.65 0 1 0 322.9 692.95a254.05 254.05 0 0 0 34.35 29.63v101.27a31.88 31.88 0 0 0 31.88 32.08h41.36a92.66 92.66 0 0 0 19.91 30.3 86.25 86.25 0 0 0 123.2-0.23 85.33 85.33 0 0 0 19.65-30.07h41.6c17.64 0 31.67-14 31.67-32.08V722.58a246.26 246.26 0 0 0 34.79-29.63 267.65 267.65 0 0 0 0-378.63z m-30.1 348.39l-0.36 0.36-0.36 0.37a203.43 203.43 0 0 1-28.81 24.44l-17.83 12.76v112.64h-59.52l-10.71 26.86a44.1 44.1 0 0 1-72.69 16.29 50.13 50.13 0 0 1-10.84-16.38l-10.74-26.78h-59.43v-112.4l-17.56-12.78a211 211 0 0 1-28.63-24.63l-0.39-0.41-0.4-0.4a222 222 0 0 1-66-158.91c0-60 23.5-116.58 66.25-159.32a222.42 222.42 0 0 1 158.74-65.89c60.36 0 116.89 23.4 159.19 65.89a225 225 0 0 1 0.13 318.29z" fill="#13C2C2" p-id="6378"></path><path d="M601.17 463.27a91.74 91.74 0 0 0-35.93-7 94.52 94.52 0 0 0-36.18 7 70.49 70.49 0 0 0-17.18 9.28c-5.44-3.84-10.86-7.25-16.74-9.28a97.32 97.32 0 0 0-36.39-7 92.63 92.63 0 0 0-35.95 7 89.42 89.42 0 0 0-30.74 20.58c-7.46 7.45-7.46 19.21 0 27.13 7.24 7 19.44 7 27.13 0A55 55 0 0 1 437 498.32a59.81 59.81 0 0 1 21.71-4.08 58.61 58.61 0 0 1 21.48 4.08A56 56 0 0 1 498.32 511c7.69 7 19.88 7 27.13 0a55.68 55.68 0 0 1 18.08-12.66 60.63 60.63 0 0 1 21.71-4.08 61.47 61.47 0 0 1 21.69 4.08A58.23 58.23 0 0 1 605 511c7.25 7 19.44 7 27.13 0 7.24-7.92 7.24-19.67 0-27.13a97.34 97.34 0 0 0-30.96-20.6zM339.4 242.88a19.22 19.22 0 0 0 26.44 7.22c8.59-5 12-16.71 6.55-26l-30.51-52.89c-5-9.26-16.74-12-25.76-6.78a19.15 19.15 0 0 0-7.24 26zM511.88 210.77a18.61 18.61 0 0 0 19-18.75v-60.81a19 19 0 0 0-19-19.21 19.29 19.29 0 0 0-19 19.21V192a18.91 18.91 0 0 0 19 18.77zM791.51 364.5l52.66-30.5a19.38 19.38 0 0 0 7-26.2 19 19 0 0 0-26-6.78l-52.46 30.51a18.32 18.32 0 0 0-7.22 25.76 19.21 19.21 0 0 0 26.02 7.21zM658.36 250.1c9.05 5.44 20.79 2 26.23-7.22l30.28-52c5.21-9.72 2.27-21.25-6.78-26.46-9.26-5.42-21.25-2.48-26.2 6.78l-30.3 52.89c-5.42 9.29-2.48 21.06 6.77 26.01zM179.57 334l52.69 30.53c9.26 5.42 20.79 2 26.22-7.24 5.19-8.59 2-20.35-7-25.76L198.78 301a19.09 19.09 0 1 0-19.21 33zM884.87 484.52h-61.25a18.73 18.73 0 0 0-18.78 18.78c0 10.85 8.36 19.67 18.78 19.67h61.25c10.39 0 18.78-8.82 18.78-19.67a18.74 18.74 0 0 0-18.78-18.78zM844.17 673.74L791.51 643a19.48 19.48 0 0 0-26 6.78 18.84 18.84 0 0 0 7.23 26.22l52.45 30.74a19 19 0 0 0 19-33zM421.23 755.8v36.39h35.49c17.63 0 32.11 14.26 32.11 31.66v0.9c0 5.88 2.24 12.2 6.78 16.28v0.44a24.51 24.51 0 0 0 16.27 6.35c6.32 0 12-2.71 16.71-6.78a22 22 0 0 0 6.57-16.27v-0.9c0-17.41 14.67-31.67 32.08-31.67h35.51v-36.4a271.86 271.86 0 0 1-181.53 0zM219.36 503.3a19 19 0 0 0-19.21-18.78h-60.81a18.78 18.78 0 0 0-19 18.78c0 10.85 8.36 19.67 19 19.67h60.81a19.45 19.45 0 0 0 19.21-19.67zM232.26 643L180 673.74c-9.49 5.44-12.66 16.74-7.45 25.76 5.41 9 16.94 12.66 26 7.24L251.47 676a19.39 19.39 0 0 0 7-26.23 19.77 19.77 0 0 0-26.21-6.77z" fill="#13C2C2" p-id="6379"></path></svg>