<?xml version="1.0" standalone="no"?><!DOCTYPE svg PUBLIC "-//W3C//DTD SVG 1.1//EN" "http://www.w3.org/Graphics/SVG/1.1/DTD/svg11.dtd"><svg t="1647854205482" class="icon" viewBox="0 0 1024 1024" version="1.1" xmlns="http://www.w3.org/2000/svg" p-id="9805" xmlns:xlink="http://www.w3.org/1999/xlink" width="200" height="200"><defs><style type="text/css">@font-face { font-family: feedback-iconfont; src: url("//at.alicdn.com/t/font_1031158_u69w8yhxdu.woff2?t=1630033759944") format("woff2"), url("//at.alicdn.com/t/font_1031158_u69w8yhxdu.woff?t=1630033759944") format("woff"), url("//at.alicdn.com/t/font_1031158_u69w8yhxdu.ttf?t=1630033759944") format("truetype"); }
</style></defs><path d="M352.73918 634.4l-41.9-83.3c-11.6-23-39.6-32.3-62.6-20.7C225.33918 542 216.03918 570 227.63918 593l41.9 83.3c11.6 23 39.6 32.3 62.6 20.7 22.9-11.6 32.2-39.6 20.6-62.6zM693.13918 368c0-38.6 31.3-69.9 69.9-69.9 38.6 0 69.9 31.3 69.9 69.9 0 38.6-31.3 69.9-69.9 69.9-38.5 0-69.9-31.3-69.9-69.9z" fill="#13C2C2" p-id="9806"></path><path d="M283.53918 940.4c-44 0-89.3-26.5-114.8-72.1L19.23918 601.5C2.83918 572.4-3.36082 539.3 1.73918 508.4c5.7-34.3 25-63 53.1-78.7l580.4-325.4c38.6-21.6 84.4-26.5 125.6-13.4 184.3 58.4 228.6 104.2 245.9 133.5 33.1 56.1 12.4 158.7-13.6 267.8L991.03918 501c-10.1 42.5-38.2 79.4-77.2 101.2L333.93918 927.4c-15.7 8.8-32.9 13-50.4 13z m430.4-763.6c-11.3 0-22.7 3-33 8.7L100.53918 510.9c-4.6 2.6-6.3 9.7-6.7 12.6-1.7 10 0.8 21.8 6.7 32.3L250.03918 822.7c11.5 20.5 30.7 27.7 38.3 23.4l580.1-325.2c16.3-9.1 28-24.3 32-41.4l2.1-8.9c10.1-42.2 40.7-170.5 24-198.8-2.3-3.8-27-39.1-193.8-92-6-2-12.4-3-18.8-3z" fill="#13C2C2" p-id="9807"></path></svg>